<mxfile host="app.diagrams.net" modified="2024-01-26T02:19:37.079Z" agent="Mozilla/5.0 (Windows NT 10.0; Win64; x64; rv:121.0) Gecko/20100101 Firefox/121.0" etag="hrMNT6SwNPnpBZeJEfUP" version="23.0.1" type="device">
  <diagram name="Page-1" id="8d2dY4FmEUznQflFdPQt">
    <mxGraphModel dx="2923" dy="2205" grid="1" gridSize="10" guides="1" tooltips="1" connect="1" arrows="1" fold="1" page="1" pageScale="1" pageWidth="850" pageHeight="1100" math="0" shadow="0">
      <root>
        <mxCell id="0" />
        <mxCell id="1" parent="0" />
        <mxCell id="mKE5pp7Ul3JF2eYZ8zkB-1" value="" style="rounded=0;whiteSpace=wrap;html=1;fontFamily=Poppins;fontSource=https%3A%2F%2Ffonts.googleapis.com%2Fcss%3Ffamily%3DPoppins;" vertex="1" parent="1">
          <mxGeometry x="140" y="-530" width="620" height="670" as="geometry" />
        </mxCell>
        <mxCell id="mKE5pp7Ul3JF2eYZ8zkB-2" value="Pasien" style="shape=umlActor;verticalLabelPosition=bottom;verticalAlign=top;html=1;outlineConnect=0;fontFamily=Poppins;fontSource=https%3A%2F%2Ffonts.googleapis.com%2Fcss%3Ffamily%3DPoppins;" vertex="1" parent="1">
          <mxGeometry x="-51" y="-255.00000000000003" width="30" height="60" as="geometry" />
        </mxCell>
        <mxCell id="mKE5pp7Ul3JF2eYZ8zkB-3" value="Mesin APM" style="shape=umlActor;verticalLabelPosition=bottom;verticalAlign=top;html=1;outlineConnect=0;fontFamily=Poppins;fontSource=https%3A%2F%2Ffonts.googleapis.com%2Fcss%3Ffamily%3DPoppins;" vertex="1" parent="1">
          <mxGeometry x="850" y="-40" width="30" height="60" as="geometry" />
        </mxCell>
        <mxCell id="mKE5pp7Ul3JF2eYZ8zkB-4" value="Petugas Loket Pendaftaran" style="shape=umlActor;verticalLabelPosition=bottom;verticalAlign=top;html=1;outlineConnect=0;fontFamily=Poppins;fontSource=https%3A%2F%2Ffonts.googleapis.com%2Fcss%3Ffamily%3DPoppins;" vertex="1" parent="1">
          <mxGeometry x="850" y="-230" width="30" height="60" as="geometry" />
        </mxCell>
        <mxCell id="mKE5pp7Ul3JF2eYZ8zkB-7" value="Pasien Baru" style="shape=umlActor;verticalLabelPosition=bottom;verticalAlign=top;html=1;outlineConnect=0;fontFamily=Poppins;fontSource=https%3A%2F%2Ffonts.googleapis.com%2Fcss%3Ffamily%3DPoppins;" vertex="1" parent="1">
          <mxGeometry x="10" y="59.99999999999994" width="30" height="60" as="geometry" />
        </mxCell>
        <mxCell id="mKE5pp7Ul3JF2eYZ8zkB-8" value="Pasien Lama" style="shape=umlActor;verticalLabelPosition=bottom;verticalAlign=top;html=1;outlineConnect=0;fontFamily=Poppins;fontSource=https%3A%2F%2Ffonts.googleapis.com%2Fcss%3Ffamily%3DPoppins;" vertex="1" parent="1">
          <mxGeometry x="59" y="-105.00000000000003" width="30" height="60" as="geometry" />
        </mxCell>
        <mxCell id="mKE5pp7Ul3JF2eYZ8zkB-13" value="Sistem Pendaftaran Pasien" style="text;html=1;strokeColor=none;fillColor=none;align=center;verticalAlign=middle;whiteSpace=wrap;rounded=0;fontFamily=Poppins;fontSource=https%3A%2F%2Ffonts.googleapis.com%2Fcss%3Ffamily%3DPoppins;" vertex="1" parent="1">
          <mxGeometry x="349" y="-510" width="220" height="30" as="geometry" />
        </mxCell>
        <mxCell id="mKE5pp7Ul3JF2eYZ8zkB-34" style="rounded=0;orthogonalLoop=1;jettySize=auto;html=1;dashed=1;fontFamily=Poppins;fontSource=https%3A%2F%2Ffonts.googleapis.com%2Fcss%3Ffamily%3DPoppins;" edge="1" parent="1" source="mKE5pp7Ul3JF2eYZ8zkB-18" target="mKE5pp7Ul3JF2eYZ8zkB-20">
          <mxGeometry relative="1" as="geometry" />
        </mxCell>
        <mxCell id="mKE5pp7Ul3JF2eYZ8zkB-35" value="&amp;lt;&amp;lt;include&amp;gt;&amp;gt;" style="edgeLabel;html=1;align=center;verticalAlign=middle;resizable=0;points=[];fontFamily=Poppins;fontSource=https%3A%2F%2Ffonts.googleapis.com%2Fcss%3Ffamily%3DPoppins;" vertex="1" connectable="0" parent="mKE5pp7Ul3JF2eYZ8zkB-34">
          <mxGeometry x="-0.2837" relative="1" as="geometry">
            <mxPoint as="offset" />
          </mxGeometry>
        </mxCell>
        <mxCell id="mKE5pp7Ul3JF2eYZ8zkB-18" value="Input No Rekam Medis" style="ellipse;whiteSpace=wrap;html=1;fontFamily=Poppins;fontSource=https%3A%2F%2Ffonts.googleapis.com%2Fcss%3Ffamily%3DPoppins;" vertex="1" parent="1">
          <mxGeometry x="179" y="-26.420000000000016" width="130" height="90" as="geometry" />
        </mxCell>
        <mxCell id="mKE5pp7Ul3JF2eYZ8zkB-19" value="Input data lengkap pasien" style="ellipse;whiteSpace=wrap;html=1;fontFamily=Poppins;fontSource=https%3A%2F%2Ffonts.googleapis.com%2Fcss%3Ffamily%3DPoppins;" vertex="1" parent="1">
          <mxGeometry x="340" y="-1.4210854715202004e-14" width="130" height="90" as="geometry" />
        </mxCell>
        <mxCell id="mKE5pp7Ul3JF2eYZ8zkB-20" value="Pilih pasien baru atau lama" style="ellipse;whiteSpace=wrap;html=1;fontFamily=Poppins;fontSource=https%3A%2F%2Ffonts.googleapis.com%2Fcss%3Ffamily%3DPoppins;" vertex="1" parent="1">
          <mxGeometry x="229" y="-166.42000000000002" width="120" height="80" as="geometry" />
        </mxCell>
        <mxCell id="mKE5pp7Ul3JF2eYZ8zkB-21" value="Input pilihan dokter" style="ellipse;whiteSpace=wrap;html=1;fontFamily=Poppins;fontSource=https%3A%2F%2Ffonts.googleapis.com%2Fcss%3Ffamily%3DPoppins;" vertex="1" parent="1">
          <mxGeometry x="390" y="-300" width="110" height="85" as="geometry" />
        </mxCell>
        <mxCell id="mKE5pp7Ul3JF2eYZ8zkB-22" value="input pilihan hari" style="ellipse;whiteSpace=wrap;html=1;fontFamily=Poppins;fontSource=https%3A%2F%2Ffonts.googleapis.com%2Fcss%3Ffamily%3DPoppins;" vertex="1" parent="1">
          <mxGeometry x="390" y="-390" width="120" height="80" as="geometry" />
        </mxCell>
        <mxCell id="mKE5pp7Ul3JF2eYZ8zkB-23" value="Input waktu kontrol" style="ellipse;whiteSpace=wrap;html=1;fontFamily=Poppins;fontSource=https%3A%2F%2Ffonts.googleapis.com%2Fcss%3Ffamily%3DPoppins;" vertex="1" parent="1">
          <mxGeometry x="370" y="-200" width="110" height="75" as="geometry" />
        </mxCell>
        <mxCell id="mKE5pp7Ul3JF2eYZ8zkB-24" value="Input data" style="ellipse;whiteSpace=wrap;html=1;fontFamily=Poppins;fontSource=https%3A%2F%2Ffonts.googleapis.com%2Fcss%3Ffamily%3DPoppins;" vertex="1" parent="1">
          <mxGeometry x="220" y="-310" width="120" height="80" as="geometry" />
        </mxCell>
        <mxCell id="mKE5pp7Ul3JF2eYZ8zkB-25" value="Input data registrasi ulang pasien" style="ellipse;whiteSpace=wrap;html=1;fontFamily=Poppins;fontSource=https%3A%2F%2Ffonts.googleapis.com%2Fcss%3Ffamily%3DPoppins;" vertex="1" parent="1">
          <mxGeometry x="580" y="-278.92" width="150" height="95" as="geometry" />
        </mxCell>
        <mxCell id="mKE5pp7Ul3JF2eYZ8zkB-26" value="Insert data registrasi ulang pasien lama dengan bpjs" style="ellipse;whiteSpace=wrap;html=1;fontFamily=Poppins;fontSource=https%3A%2F%2Ffonts.googleapis.com%2Fcss%3Ffamily%3DPoppins;" vertex="1" parent="1">
          <mxGeometry x="560" y="-95" width="150" height="95" as="geometry" />
        </mxCell>
        <mxCell id="mKE5pp7Ul3JF2eYZ8zkB-27" value="" style="endArrow=none;html=1;rounded=0;entryX=-0.003;entryY=0.467;entryDx=0;entryDy=0;entryPerimeter=0;fontFamily=Poppins;fontSource=https%3A%2F%2Ffonts.googleapis.com%2Fcss%3Ffamily%3DPoppins;" edge="1" parent="1" target="mKE5pp7Ul3JF2eYZ8zkB-20">
          <mxGeometry width="50" height="50" relative="1" as="geometry">
            <mxPoint x="10" y="-200" as="sourcePoint" />
            <mxPoint x="259" y="3.579999999999984" as="targetPoint" />
          </mxGeometry>
        </mxCell>
        <mxCell id="mKE5pp7Ul3JF2eYZ8zkB-28" value="" style="endArrow=classic;html=1;rounded=0;fontFamily=Poppins;fontSource=https%3A%2F%2Ffonts.googleapis.com%2Fcss%3Ffamily%3DPoppins;" edge="1" parent="1">
          <mxGeometry width="50" height="50" relative="1" as="geometry">
            <mxPoint x="10" y="40" as="sourcePoint" />
            <mxPoint x="-30" y="-155" as="targetPoint" />
          </mxGeometry>
        </mxCell>
        <mxCell id="mKE5pp7Ul3JF2eYZ8zkB-30" value="" style="endArrow=classic;html=1;rounded=0;fontFamily=Poppins;fontSource=https%3A%2F%2Ffonts.googleapis.com%2Fcss%3Ffamily%3DPoppins;" edge="1" parent="1">
          <mxGeometry width="50" height="50" relative="1" as="geometry">
            <mxPoint x="50" y="-100" as="sourcePoint" />
            <mxPoint x="-11" y="-165.00000000000003" as="targetPoint" />
          </mxGeometry>
        </mxCell>
        <mxCell id="mKE5pp7Ul3JF2eYZ8zkB-31" value="" style="endArrow=none;html=1;rounded=0;entryX=0.073;entryY=0.245;entryDx=0;entryDy=0;entryPerimeter=0;fontFamily=Poppins;fontSource=https%3A%2F%2Ffonts.googleapis.com%2Fcss%3Ffamily%3DPoppins;" edge="1" parent="1" target="mKE5pp7Ul3JF2eYZ8zkB-18">
          <mxGeometry width="50" height="50" relative="1" as="geometry">
            <mxPoint x="109" y="-70" as="sourcePoint" />
            <mxPoint x="229" y="-100.42000000000002" as="targetPoint" />
          </mxGeometry>
        </mxCell>
        <mxCell id="mKE5pp7Ul3JF2eYZ8zkB-32" value="" style="endArrow=none;html=1;rounded=0;entryX=0.044;entryY=0.71;entryDx=0;entryDy=0;entryPerimeter=0;fontFamily=Poppins;fontSource=https%3A%2F%2Ffonts.googleapis.com%2Fcss%3Ffamily%3DPoppins;" edge="1" parent="1" target="mKE5pp7Ul3JF2eYZ8zkB-19">
          <mxGeometry width="50" height="50" relative="1" as="geometry">
            <mxPoint x="80" y="90" as="sourcePoint" />
            <mxPoint x="229" y="73.57999999999998" as="targetPoint" />
          </mxGeometry>
        </mxCell>
        <mxCell id="mKE5pp7Ul3JF2eYZ8zkB-36" style="rounded=0;orthogonalLoop=1;jettySize=auto;html=1;dashed=1;entryX=0.744;entryY=0.938;entryDx=0;entryDy=0;entryPerimeter=0;exitX=0.411;exitY=0.005;exitDx=0;exitDy=0;exitPerimeter=0;fontFamily=Poppins;fontSource=https%3A%2F%2Ffonts.googleapis.com%2Fcss%3Ffamily%3DPoppins;" edge="1" parent="1" source="mKE5pp7Ul3JF2eYZ8zkB-19" target="mKE5pp7Ul3JF2eYZ8zkB-20">
          <mxGeometry relative="1" as="geometry">
            <mxPoint x="360" y="90" as="sourcePoint" />
            <mxPoint x="389" y="115.57999999999998" as="targetPoint" />
          </mxGeometry>
        </mxCell>
        <mxCell id="mKE5pp7Ul3JF2eYZ8zkB-37" value="&amp;lt;&amp;lt;include&amp;gt;&amp;gt;" style="edgeLabel;html=1;align=center;verticalAlign=middle;resizable=0;points=[];fontFamily=Poppins;fontSource=https%3A%2F%2Ffonts.googleapis.com%2Fcss%3Ffamily%3DPoppins;" vertex="1" connectable="0" parent="mKE5pp7Ul3JF2eYZ8zkB-36">
          <mxGeometry x="-0.2837" relative="1" as="geometry">
            <mxPoint as="offset" />
          </mxGeometry>
        </mxCell>
        <mxCell id="mKE5pp7Ul3JF2eYZ8zkB-43" value="" style="endArrow=none;html=1;rounded=0;entryX=0.008;entryY=0.584;entryDx=0;entryDy=0;entryPerimeter=0;fontFamily=Poppins;fontSource=https%3A%2F%2Ffonts.googleapis.com%2Fcss%3Ffamily%3DPoppins;" edge="1" parent="1" target="mKE5pp7Ul3JF2eYZ8zkB-24">
          <mxGeometry width="50" height="50" relative="1" as="geometry">
            <mxPoint x="10" y="-240" as="sourcePoint" />
            <mxPoint x="241" y="-151" as="targetPoint" />
          </mxGeometry>
        </mxCell>
        <mxCell id="mKE5pp7Ul3JF2eYZ8zkB-44" style="rounded=0;orthogonalLoop=1;jettySize=auto;html=1;dashed=1;exitX=0.5;exitY=1;exitDx=0;exitDy=0;entryX=0.452;entryY=0.015;entryDx=0;entryDy=0;entryPerimeter=0;fontFamily=Poppins;fontSource=https%3A%2F%2Ffonts.googleapis.com%2Fcss%3Ffamily%3DPoppins;" edge="1" parent="1" source="mKE5pp7Ul3JF2eYZ8zkB-24" target="mKE5pp7Ul3JF2eYZ8zkB-20">
          <mxGeometry relative="1" as="geometry">
            <mxPoint x="267" y="-15" as="sourcePoint" />
            <mxPoint x="287" y="-77" as="targetPoint" />
          </mxGeometry>
        </mxCell>
        <mxCell id="mKE5pp7Ul3JF2eYZ8zkB-45" value="&amp;lt;&amp;lt;include&amp;gt;&amp;gt;" style="edgeLabel;html=1;align=center;verticalAlign=middle;resizable=0;points=[];fontFamily=Poppins;fontSource=https%3A%2F%2Ffonts.googleapis.com%2Fcss%3Ffamily%3DPoppins;" vertex="1" connectable="0" parent="mKE5pp7Ul3JF2eYZ8zkB-44">
          <mxGeometry x="-0.2837" relative="1" as="geometry">
            <mxPoint as="offset" />
          </mxGeometry>
        </mxCell>
        <mxCell id="mKE5pp7Ul3JF2eYZ8zkB-47" value="" style="endArrow=classic;html=1;rounded=0;entryX=1;entryY=0;entryDx=0;entryDy=0;exitX=0.046;exitY=0.688;exitDx=0;exitDy=0;exitPerimeter=0;fontFamily=Poppins;fontSource=https%3A%2F%2Ffonts.googleapis.com%2Fcss%3Ffamily%3DPoppins;" edge="1" parent="1" source="mKE5pp7Ul3JF2eYZ8zkB-22" target="mKE5pp7Ul3JF2eYZ8zkB-24">
          <mxGeometry width="50" height="50" relative="1" as="geometry">
            <mxPoint x="380" y="-280" as="sourcePoint" />
            <mxPoint x="330" y="-370" as="targetPoint" />
          </mxGeometry>
        </mxCell>
        <mxCell id="mKE5pp7Ul3JF2eYZ8zkB-49" value="" style="endArrow=classic;html=1;rounded=0;entryX=1;entryY=0.5;entryDx=0;entryDy=0;exitX=0.007;exitY=0.401;exitDx=0;exitDy=0;exitPerimeter=0;fontFamily=Poppins;fontSource=https%3A%2F%2Ffonts.googleapis.com%2Fcss%3Ffamily%3DPoppins;" edge="1" parent="1" source="mKE5pp7Ul3JF2eYZ8zkB-21" target="mKE5pp7Ul3JF2eYZ8zkB-24">
          <mxGeometry width="50" height="50" relative="1" as="geometry">
            <mxPoint x="410" y="-330" as="sourcePoint" />
            <mxPoint x="345" y="-277" as="targetPoint" />
          </mxGeometry>
        </mxCell>
        <mxCell id="mKE5pp7Ul3JF2eYZ8zkB-50" value="" style="endArrow=classic;html=1;rounded=0;entryX=1;entryY=1;entryDx=0;entryDy=0;exitX=0.12;exitY=0.168;exitDx=0;exitDy=0;exitPerimeter=0;fontFamily=Poppins;fontSource=https%3A%2F%2Ffonts.googleapis.com%2Fcss%3Ffamily%3DPoppins;" edge="1" parent="1" source="mKE5pp7Ul3JF2eYZ8zkB-23" target="mKE5pp7Ul3JF2eYZ8zkB-24">
          <mxGeometry width="50" height="50" relative="1" as="geometry">
            <mxPoint x="410" y="-230.57" as="sourcePoint" />
            <mxPoint x="340" y="-230.57" as="targetPoint" />
          </mxGeometry>
        </mxCell>
        <mxCell id="mKE5pp7Ul3JF2eYZ8zkB-51" value="" style="endArrow=none;html=1;rounded=0;exitX=1;exitY=0.5;exitDx=0;exitDy=0;fontFamily=Poppins;fontSource=https%3A%2F%2Ffonts.googleapis.com%2Fcss%3Ffamily%3DPoppins;" edge="1" parent="1" source="mKE5pp7Ul3JF2eYZ8zkB-25">
          <mxGeometry width="50" height="50" relative="1" as="geometry">
            <mxPoint x="544" y="-209" as="sourcePoint" />
            <mxPoint x="830" y="-200" as="targetPoint" />
          </mxGeometry>
        </mxCell>
        <mxCell id="mKE5pp7Ul3JF2eYZ8zkB-52" value="" style="endArrow=none;html=1;rounded=0;exitX=0.982;exitY=0.604;exitDx=0;exitDy=0;exitPerimeter=0;fontFamily=Poppins;fontSource=https%3A%2F%2Ffonts.googleapis.com%2Fcss%3Ffamily%3DPoppins;" edge="1" parent="1" source="mKE5pp7Ul3JF2eYZ8zkB-26">
          <mxGeometry width="50" height="50" relative="1" as="geometry">
            <mxPoint x="670" y="-54" as="sourcePoint" />
            <mxPoint x="840" as="targetPoint" />
          </mxGeometry>
        </mxCell>
        <mxCell id="mKE5pp7Ul3JF2eYZ8zkB-54" value="input pilihan hari" style="ellipse;whiteSpace=wrap;html=1;fontFamily=Poppins;fontSource=https%3A%2F%2Ffonts.googleapis.com%2Fcss%3Ffamily%3DPoppins;" vertex="1" parent="1">
          <mxGeometry x="309" y="-460" width="120" height="80" as="geometry" />
        </mxCell>
        <mxCell id="mKE5pp7Ul3JF2eYZ8zkB-55" value="" style="endArrow=classic;html=1;rounded=0;entryX=0.661;entryY=0.022;entryDx=0;entryDy=0;exitX=0.247;exitY=0.941;exitDx=0;exitDy=0;fontFamily=Poppins;fontSource=https%3A%2F%2Ffonts.googleapis.com%2Fcss%3Ffamily%3DPoppins;exitPerimeter=0;entryPerimeter=0;" edge="1" parent="1" source="mKE5pp7Ul3JF2eYZ8zkB-54" target="mKE5pp7Ul3JF2eYZ8zkB-24">
          <mxGeometry width="50" height="50" relative="1" as="geometry">
            <mxPoint x="406" y="-325" as="sourcePoint" />
            <mxPoint x="332" y="-288" as="targetPoint" />
          </mxGeometry>
        </mxCell>
      </root>
    </mxGraphModel>
  </diagram>
</mxfile>
